{
	"asset":{
		"generator":"Khronos glTF Blender I/O v4.0.44",
		"version":"2.0"
	},
	"scene":0,
	"scenes":[
		{
			"name":"Scene",
			"nodes":[
				0,
				8,
				9,
				10,
				11
			]
		}
	],
	"nodes":[
		{
			"name":"Armature",
			"rotation":[
				-0.7179018259048462,
				0,
				0,
				0.6961444020271301
			],
			"scale":[
				2.3667283058166504,
				2.3667283058166504,
				2.3667283058166504
			]
		},
		{
			"name":"Armature.001_Bone.005",
			"rotation":[
				0.04947354272007942,
				1.5076923887136218e-07,
				-4.5174782426112003e-13,
				0.9987754225730896
			],
			"translation":[
				2.842170943040401e-14,
				0.7423886656761169,
				3.725290298461914e-08
			]
		},
		{
			"children":[
				1
			],
			"name":"Armature.001_Bone.002",
			"rotation":[
				0.009498396888375282,
				8.44059577786993e-09,
				-6.722991607865936e-10,
				0.999954879283905
			],
			"scale":[
				1,
				1.0000001192092896,
				1.0000001192092896
			],
			"translation":[
				1.1202180134027573e-15,
				0.9043452739715576,
				1.564621925354004e-07
			]
		},
		{
			"children":[
				2
			],
			"name":"Armature.001_Bone.001",
			"rotation":[
				8.599368994666179e-10,
				0.9994868636131287,
				-0.03203243762254715,
				1.9460726718989463e-07
			],
			"scale":[
				1,
				0.9999997019767761,
				1
			],
			"translation":[
				2.2447409870566398e-14,
				1.0862770080566406,
				-1.434236764907837e-07
			]
		},
		{
			"name":"Armature.001_Bone.003",
			"rotation":[
				-0.46226081252098083,
				-0.5568000674247742,
				-0.23282429575920105,
				0.6496779918670654
			],
			"scale":[
				1,
				1.0000001192092896,
				0.9999999403953552
			],
			"translation":[
				0.2808981239795685,
				0.9403447508811951,
				-0.12864543497562408
			]
		},
		{
			"name":"Armature.001_Bone.004",
			"rotation":[
				-0.47361552715301514,
				0.5558608174324036,
				0.24682480096817017,
				0.6370123028755188
			],
			"scale":[
				1,
				0.9999997615814209,
				0.9999998211860657
			],
			"translation":[
				-0.25935664772987366,
				0.957797646522522,
				-0.12929154932498932
			]
		},
		{
			"children":[
				3,
				4,
				5
			],
			"name":"Armature.001_Bone",
			"rotation":[
				-0.6911851763725281,
				8.00557415914227e-08,
				-7.656706912939626e-08,
				0.7226777672767639
			],
			"scale":[
				1,
				0.9999999403953552,
				1
			],
			"translation":[
				-4.034868549300172e-15,
				-0.1203489750623703,
				3.479185104370117
			]
		},
		{
			"mesh":0,
			"name":"orca",
			"skin":0
		},
		{
			"children":[
				7,
				6
			],
			"name":"Armature.001",
			"rotation":[
				-0.7193397283554077,
				0,
				0,
				0.6946584582328796
			],
			"scale":[
				2.6016106605529785,
				2.6016106605529785,
				2.6016106605529785
			],
			"translation":[
				0,
				-0.12034916877746582,
				3.479184865951538
			]
		},
		{
			"name":"Camera",
			"rotation":[
				0.545272171497345,
				0.32254713773727417,
				-0.24781039357185364,
				0.7329608798027039
			],
			"translation":[
				11.20011043548584,
				12.870311737060547,
				9.397167205810547
			]
		},
		{
			"name":"Light"
		},
		{
			"name":"Sun",
			"rotation":[
				0.4170902371406555,
				-0.08488462120294571,
				-0.3829372227191925,
				0.8198716044425964
			],
			"translation":[
				-1.2701783180236816,
				12.992411613464355,
				-0.6595442295074463
			]
		}
	],
	"animations":[
		{
			"channels":[
				{
					"sampler":0,
					"target":{
						"node":6,
						"path":"translation"
					}
				},
				{
					"sampler":1,
					"target":{
						"node":6,
						"path":"rotation"
					}
				},
				{
					"sampler":2,
					"target":{
						"node":6,
						"path":"scale"
					}
				},
				{
					"sampler":3,
					"target":{
						"node":3,
						"path":"translation"
					}
				},
				{
					"sampler":4,
					"target":{
						"node":3,
						"path":"rotation"
					}
				},
				{
					"sampler":5,
					"target":{
						"node":3,
						"path":"scale"
					}
				},
				{
					"sampler":6,
					"target":{
						"node":2,
						"path":"translation"
					}
				},
				{
					"sampler":7,
					"target":{
						"node":2,
						"path":"rotation"
					}
				},
				{
					"sampler":8,
					"target":{
						"node":2,
						"path":"scale"
					}
				},
				{
					"sampler":9,
					"target":{
						"node":1,
						"path":"translation"
					}
				},
				{
					"sampler":10,
					"target":{
						"node":1,
						"path":"rotation"
					}
				},
				{
					"sampler":11,
					"target":{
						"node":1,
						"path":"scale"
					}
				},
				{
					"sampler":12,
					"target":{
						"node":4,
						"path":"translation"
					}
				},
				{
					"sampler":13,
					"target":{
						"node":4,
						"path":"rotation"
					}
				},
				{
					"sampler":14,
					"target":{
						"node":4,
						"path":"scale"
					}
				},
				{
					"sampler":15,
					"target":{
						"node":5,
						"path":"translation"
					}
				},
				{
					"sampler":16,
					"target":{
						"node":5,
						"path":"rotation"
					}
				},
				{
					"sampler":17,
					"target":{
						"node":5,
						"path":"scale"
					}
				}
			],
			"name":"ATTACK",
			"samplers":[
				{
					"input":7,
					"interpolation":"LINEAR",
					"output":8
				},
				{
					"input":7,
					"interpolation":"LINEAR",
					"output":9
				},
				{
					"input":10,
					"interpolation":"STEP",
					"output":11
				},
				{
					"input":10,
					"interpolation":"LINEAR",
					"output":12
				},
				{
					"input":7,
					"interpolation":"LINEAR",
					"output":13
				},
				{
					"input":10,
					"interpolation":"STEP",
					"output":14
				},
				{
					"input":10,
					"interpolation":"LINEAR",
					"output":15
				},
				{
					"input":7,
					"interpolation":"LINEAR",
					"output":16
				},
				{
					"input":10,
					"interpolation":"STEP",
					"output":17
				},
				{
					"input":10,
					"interpolation":"LINEAR",
					"output":18
				},
				{
					"input":7,
					"interpolation":"LINEAR",
					"output":19
				},
				{
					"input":10,
					"interpolation":"STEP",
					"output":20
				},
				{
					"input":10,
					"interpolation":"LINEAR",
					"output":21
				},
				{
					"input":7,
					"interpolation":"LINEAR",
					"output":22
				},
				{
					"input":10,
					"interpolation":"STEP",
					"output":23
				},
				{
					"input":10,
					"interpolation":"LINEAR",
					"output":24
				},
				{
					"input":7,
					"interpolation":"LINEAR",
					"output":25
				},
				{
					"input":10,
					"interpolation":"STEP",
					"output":26
				}
			]
		},
		{
			"channels":[
				{
					"sampler":0,
					"target":{
						"node":6,
						"path":"translation"
					}
				},
				{
					"sampler":1,
					"target":{
						"node":6,
						"path":"rotation"
					}
				},
				{
					"sampler":2,
					"target":{
						"node":6,
						"path":"scale"
					}
				},
				{
					"sampler":3,
					"target":{
						"node":3,
						"path":"translation"
					}
				},
				{
					"sampler":4,
					"target":{
						"node":3,
						"path":"rotation"
					}
				},
				{
					"sampler":5,
					"target":{
						"node":3,
						"path":"scale"
					}
				},
				{
					"sampler":6,
					"target":{
						"node":2,
						"path":"translation"
					}
				},
				{
					"sampler":7,
					"target":{
						"node":2,
						"path":"rotation"
					}
				},
				{
					"sampler":8,
					"target":{
						"node":2,
						"path":"scale"
					}
				},
				{
					"sampler":9,
					"target":{
						"node":1,
						"path":"translation"
					}
				},
				{
					"sampler":10,
					"target":{
						"node":1,
						"path":"rotation"
					}
				},
				{
					"sampler":11,
					"target":{
						"node":1,
						"path":"scale"
					}
				},
				{
					"sampler":12,
					"target":{
						"node":4,
						"path":"translation"
					}
				},
				{
					"sampler":13,
					"target":{
						"node":4,
						"path":"rotation"
					}
				},
				{
					"sampler":14,
					"target":{
						"node":4,
						"path":"scale"
					}
				},
				{
					"sampler":15,
					"target":{
						"node":5,
						"path":"translation"
					}
				},
				{
					"sampler":16,
					"target":{
						"node":5,
						"path":"rotation"
					}
				},
				{
					"sampler":17,
					"target":{
						"node":5,
						"path":"scale"
					}
				}
			],
			"name":"swim",
			"samplers":[
				{
					"input":27,
					"interpolation":"LINEAR",
					"output":28
				},
				{
					"input":27,
					"interpolation":"LINEAR",
					"output":29
				},
				{
					"input":30,
					"interpolation":"STEP",
					"output":31
				},
				{
					"input":30,
					"interpolation":"LINEAR",
					"output":32
				},
				{
					"input":27,
					"interpolation":"LINEAR",
					"output":33
				},
				{
					"input":30,
					"interpolation":"STEP",
					"output":34
				},
				{
					"input":30,
					"interpolation":"LINEAR",
					"output":35
				},
				{
					"input":27,
					"interpolation":"LINEAR",
					"output":36
				},
				{
					"input":30,
					"interpolation":"STEP",
					"output":37
				},
				{
					"input":30,
					"interpolation":"LINEAR",
					"output":38
				},
				{
					"input":27,
					"interpolation":"LINEAR",
					"output":39
				},
				{
					"input":30,
					"interpolation":"STEP",
					"output":40
				},
				{
					"input":30,
					"interpolation":"LINEAR",
					"output":41
				},
				{
					"input":27,
					"interpolation":"LINEAR",
					"output":42
				},
				{
					"input":30,
					"interpolation":"STEP",
					"output":43
				},
				{
					"input":30,
					"interpolation":"LINEAR",
					"output":44
				},
				{
					"input":27,
					"interpolation":"LINEAR",
					"output":45
				},
				{
					"input":30,
					"interpolation":"STEP",
					"output":46
				}
			]
		}
	],
	"meshes":[
		{
			"name":"orca",
			"primitives":[
				{
					"attributes":{
						"POSITION":0,
						"NORMAL":1,
						"TEXCOORD_0":2,
						"JOINTS_0":3,
						"WEIGHTS_0":4
					},
					"indices":5
				}
			]
		}
	],
	"skins":[
		{
			"inverseBindMatrices":6,
			"joints":[
				6,
				3,
				2,
				1,
				4,
				5
			],
			"name":"Armature.001"
		}
	],
	"accessors":[
		{
			"bufferView":0,
			"componentType":5126,
			"count":2285,
			"max":[
				2.301166534423828,
				8.80881404876709,
				4.430412292480469
			],
			"min":[
				-2.3011670112609863,
				-1.0380561351776123,
				0.6081136465072632
			],
			"type":"VEC3"
		},
		{
			"bufferView":1,
			"componentType":5126,
			"count":2285,
			"type":"VEC3"
		},
		{
			"bufferView":2,
			"componentType":5126,
			"count":2285,
			"type":"VEC2"
		},
		{
			"bufferView":3,
			"componentType":5121,
			"count":2285,
			"type":"VEC4"
		},
		{
			"bufferView":4,
			"componentType":5126,
			"count":2285,
			"type":"VEC4"
		},
		{
			"bufferView":5,
			"componentType":5123,
			"count":11994,
			"type":"SCALAR"
		},
		{
			"bufferView":6,
			"componentType":5126,
			"count":6,
			"type":"MAT4"
		},
		{
			"bufferView":7,
			"componentType":5126,
			"count":25,
			"max":[
				1
			],
			"min":[
				0
			],
			"type":"SCALAR"
		},
		{
			"bufferView":8,
			"componentType":5126,
			"count":25,
			"type":"VEC3"
		},
		{
			"bufferView":9,
			"componentType":5126,
			"count":25,
			"type":"VEC4"
		},
		{
			"bufferView":10,
			"componentType":5126,
			"count":2,
			"max":[
				1
			],
			"min":[
				0
			],
			"type":"SCALAR"
		},
		{
			"bufferView":11,
			"componentType":5126,
			"count":2,
			"type":"VEC3"
		},
		{
			"bufferView":12,
			"componentType":5126,
			"count":2,
			"type":"VEC3"
		},
		{
			"bufferView":13,
			"componentType":5126,
			"count":25,
			"type":"VEC4"
		},
		{
			"bufferView":14,
			"componentType":5126,
			"count":2,
			"type":"VEC3"
		},
		{
			"bufferView":15,
			"componentType":5126,
			"count":2,
			"type":"VEC3"
		},
		{
			"bufferView":16,
			"componentType":5126,
			"count":25,
			"type":"VEC4"
		},
		{
			"bufferView":17,
			"componentType":5126,
			"count":2,
			"type":"VEC3"
		},
		{
			"bufferView":18,
			"componentType":5126,
			"count":2,
			"type":"VEC3"
		},
		{
			"bufferView":19,
			"componentType":5126,
			"count":25,
			"type":"VEC4"
		},
		{
			"bufferView":20,
			"componentType":5126,
			"count":2,
			"type":"VEC3"
		},
		{
			"bufferView":21,
			"componentType":5126,
			"count":2,
			"type":"VEC3"
		},
		{
			"bufferView":22,
			"componentType":5126,
			"count":25,
			"type":"VEC4"
		},
		{
			"bufferView":23,
			"componentType":5126,
			"count":2,
			"type":"VEC3"
		},
		{
			"bufferView":24,
			"componentType":5126,
			"count":2,
			"type":"VEC3"
		},
		{
			"bufferView":25,
			"componentType":5126,
			"count":25,
			"type":"VEC4"
		},
		{
			"bufferView":26,
			"componentType":5126,
			"count":2,
			"type":"VEC3"
		},
		{
			"bufferView":27,
			"componentType":5126,
			"count":10,
			"max":[
				0.375
			],
			"min":[
				0
			],
			"type":"SCALAR"
		},
		{
			"bufferView":28,
			"componentType":5126,
			"count":10,
			"type":"VEC3"
		},
		{
			"bufferView":29,
			"componentType":5126,
			"count":10,
			"type":"VEC4"
		},
		{
			"bufferView":30,
			"componentType":5126,
			"count":2,
			"max":[
				0.375
			],
			"min":[
				0
			],
			"type":"SCALAR"
		},
		{
			"bufferView":31,
			"componentType":5126,
			"count":2,
			"type":"VEC3"
		},
		{
			"bufferView":32,
			"componentType":5126,
			"count":2,
			"type":"VEC3"
		},
		{
			"bufferView":33,
			"componentType":5126,
			"count":10,
			"type":"VEC4"
		},
		{
			"bufferView":34,
			"componentType":5126,
			"count":2,
			"type":"VEC3"
		},
		{
			"bufferView":35,
			"componentType":5126,
			"count":2,
			"type":"VEC3"
		},
		{
			"bufferView":36,
			"componentType":5126,
			"count":10,
			"type":"VEC4"
		},
		{
			"bufferView":37,
			"componentType":5126,
			"count":2,
			"type":"VEC3"
		},
		{
			"bufferView":38,
			"componentType":5126,
			"count":2,
			"type":"VEC3"
		},
		{
			"bufferView":39,
			"componentType":5126,
			"count":10,
			"type":"VEC4"
		},
		{
			"bufferView":40,
			"componentType":5126,
			"count":2,
			"type":"VEC3"
		},
		{
			"bufferView":41,
			"componentType":5126,
			"count":2,
			"type":"VEC3"
		},
		{
			"bufferView":42,
			"componentType":5126,
			"count":10,
			"type":"VEC4"
		},
		{
			"bufferView":43,
			"componentType":5126,
			"count":2,
			"type":"VEC3"
		},
		{
			"bufferView":44,
			"componentType":5126,
			"count":2,
			"type":"VEC3"
		},
		{
			"bufferView":45,
			"componentType":5126,
			"count":10,
			"type":"VEC4"
		},
		{
			"bufferView":46,
			"componentType":5126,
			"count":2,
			"type":"VEC3"
		}
	],
	"bufferViews":[
		{
			"buffer":0,
			"byteLength":27420,
			"byteOffset":0,
			"target":34962
		},
		{
			"buffer":0,
			"byteLength":27420,
			"byteOffset":27420,
			"target":34962
		},
		{
			"buffer":0,
			"byteLength":18280,
			"byteOffset":54840,
			"target":34962
		},
		{
			"buffer":0,
			"byteLength":9140,
			"byteOffset":73120,
			"target":34962
		},
		{
			"buffer":0,
			"byteLength":36560,
			"byteOffset":82260,
			"target":34962
		},
		{
			"buffer":0,
			"byteLength":23988,
			"byteOffset":118820,
			"target":34963
		},
		{
			"buffer":0,
			"byteLength":384,
			"byteOffset":142808
		},
		{
			"buffer":0,
			"byteLength":100,
			"byteOffset":143192
		},
		{
			"buffer":0,
			"byteLength":300,
			"byteOffset":143292
		},
		{
			"buffer":0,
			"byteLength":400,
			"byteOffset":143592
		},
		{
			"buffer":0,
			"byteLength":8,
			"byteOffset":143992
		},
		{
			"buffer":0,
			"byteLength":24,
			"byteOffset":144000
		},
		{
			"buffer":0,
			"byteLength":24,
			"byteOffset":144024
		},
		{
			"buffer":0,
			"byteLength":400,
			"byteOffset":144048
		},
		{
			"buffer":0,
			"byteLength":24,
			"byteOffset":144448
		},
		{
			"buffer":0,
			"byteLength":24,
			"byteOffset":144472
		},
		{
			"buffer":0,
			"byteLength":400,
			"byteOffset":144496
		},
		{
			"buffer":0,
			"byteLength":24,
			"byteOffset":144896
		},
		{
			"buffer":0,
			"byteLength":24,
			"byteOffset":144920
		},
		{
			"buffer":0,
			"byteLength":400,
			"byteOffset":144944
		},
		{
			"buffer":0,
			"byteLength":24,
			"byteOffset":145344
		},
		{
			"buffer":0,
			"byteLength":24,
			"byteOffset":145368
		},
		{
			"buffer":0,
			"byteLength":400,
			"byteOffset":145392
		},
		{
			"buffer":0,
			"byteLength":24,
			"byteOffset":145792
		},
		{
			"buffer":0,
			"byteLength":24,
			"byteOffset":145816
		},
		{
			"buffer":0,
			"byteLength":400,
			"byteOffset":145840
		},
		{
			"buffer":0,
			"byteLength":24,
			"byteOffset":146240
		},
		{
			"buffer":0,
			"byteLength":40,
			"byteOffset":146264
		},
		{
			"buffer":0,
			"byteLength":120,
			"byteOffset":146304
		},
		{
			"buffer":0,
			"byteLength":160,
			"byteOffset":146424
		},
		{
			"buffer":0,
			"byteLength":8,
			"byteOffset":146584
		},
		{
			"buffer":0,
			"byteLength":24,
			"byteOffset":146592
		},
		{
			"buffer":0,
			"byteLength":24,
			"byteOffset":146616
		},
		{
			"buffer":0,
			"byteLength":160,
			"byteOffset":146640
		},
		{
			"buffer":0,
			"byteLength":24,
			"byteOffset":146800
		},
		{
			"buffer":0,
			"byteLength":24,
			"byteOffset":146824
		},
		{
			"buffer":0,
			"byteLength":160,
			"byteOffset":146848
		},
		{
			"buffer":0,
			"byteLength":24,
			"byteOffset":147008
		},
		{
			"buffer":0,
			"byteLength":24,
			"byteOffset":147032
		},
		{
			"buffer":0,
			"byteLength":160,
			"byteOffset":147056
		},
		{
			"buffer":0,
			"byteLength":24,
			"byteOffset":147216
		},
		{
			"buffer":0,
			"byteLength":24,
			"byteOffset":147240
		},
		{
			"buffer":0,
			"byteLength":160,
			"byteOffset":147264
		},
		{
			"buffer":0,
			"byteLength":24,
			"byteOffset":147424
		},
		{
			"buffer":0,
			"byteLength":24,
			"byteOffset":147448
		},
		{
			"buffer":0,
			"byteLength":160,
			"byteOffset":147472
		},
		{
			"buffer":0,
			"byteLength":24,
			"byteOffset":147632
		}
	],
	"buffers":[
		{
			"byteLength":147656,
			"uri":"whale.bin"
		}
	]
}
